<svg xmlns="http://www.w3.org/2000/svg" xmlns:xlink="http://www.w3.org/1999/xlink" width="200" zoomAndPan="magnify" viewBox="0 0 150 149.999998" height="200" preserveAspectRatio="xMidYMid meet" version="1.0"><defs><clipPath id="db020c09a9"><path d="M 21 2 L 130 2 L 130 150 L 21 150 Z M 21 2 " clip-rule="nonzero"/></clipPath><clipPath id="e4bc9d66a2"><path d="M -11.125 69.40625 L 80.289062 -8.332031 L 160.945312 86.511719 L 69.527344 164.25 Z M -11.125 69.40625 " clip-rule="nonzero"/></clipPath><clipPath id="7df156b179"><path d="M -11.125 69.40625 L 80.289062 -8.332031 L 160.945312 86.511719 L 69.527344 164.25 Z M -11.125 69.40625 " clip-rule="nonzero"/></clipPath><clipPath id="56667f0281"><path d="M 29 11 L 114 11 L 114 75 L 29 75 Z M 29 11 " clip-rule="nonzero"/></clipPath><clipPath id="852e01db43"><path d="M -11.125 69.40625 L 80.289062 -8.332031 L 160.945312 86.511719 L 69.527344 164.25 Z M -11.125 69.40625 " clip-rule="nonzero"/></clipPath><clipPath id="c6c7d5b61a"><path d="M -11.125 69.40625 L 80.289062 -8.332031 L 160.945312 86.511719 L 69.527344 164.25 Z M -11.125 69.40625 " clip-rule="nonzero"/></clipPath><clipPath id="390fce128e"><path d="M 30 50 L 122 50 L 122 142 L 30 142 Z M 30 50 " clip-rule="nonzero"/></clipPath><clipPath id="32accb4b19"><path d="M -11.125 69.40625 L 80.289062 -8.332031 L 160.945312 86.511719 L 69.527344 164.25 Z M -11.125 69.40625 " clip-rule="nonzero"/></clipPath><clipPath id="131b365eae"><path d="M -11.125 69.40625 L 80.289062 -8.332031 L 160.945312 86.511719 L 69.527344 164.25 Z M -11.125 69.40625 " clip-rule="nonzero"/></clipPath><clipPath id="7c10a43d09"><path d="M 45 87 L 55 87 L 55 100 L 45 100 Z M 45 87 " clip-rule="nonzero"/></clipPath><clipPath id="f29758342f"><path d="M -11.125 69.40625 L 80.289062 -8.332031 L 160.945312 86.511719 L 69.527344 164.25 Z M -11.125 69.40625 " clip-rule="nonzero"/></clipPath><clipPath id="df5ddeb5e5"><path d="M -11.125 69.40625 L 80.289062 -8.332031 L 160.945312 86.511719 L 69.527344 164.25 Z M -11.125 69.40625 " clip-rule="nonzero"/></clipPath><clipPath id="a88ed084fd"><path d="M 63 111 L 72 111 L 72 121 L 63 121 Z M 63 111 " clip-rule="nonzero"/></clipPath><clipPath id="ea53c0480a"><path d="M -11.125 69.40625 L 80.289062 -8.332031 L 160.945312 86.511719 L 69.527344 164.25 Z M -11.125 69.40625 " clip-rule="nonzero"/></clipPath><clipPath id="6727f04fcb"><path d="M -11.125 69.40625 L 80.289062 -8.332031 L 160.945312 86.511719 L 69.527344 164.25 Z M -11.125 69.40625 " clip-rule="nonzero"/></clipPath><clipPath id="cb064a6ad7"><path d="M 74 87 L 84 87 L 84 96 L 74 96 Z M 74 87 " clip-rule="nonzero"/></clipPath><clipPath id="8321571995"><path d="M -11.125 69.40625 L 80.289062 -8.332031 L 160.945312 86.511719 L 69.527344 164.25 Z M -11.125 69.40625 " clip-rule="nonzero"/></clipPath><clipPath id="f50f482387"><path d="M -11.125 69.40625 L 80.289062 -8.332031 L 160.945312 86.511719 L 69.527344 164.25 Z M -11.125 69.40625 " clip-rule="nonzero"/></clipPath><clipPath id="01fedefd60"><path d="M 92 102 L 100 102 L 100 112 L 92 112 Z M 92 102 " clip-rule="nonzero"/></clipPath><clipPath id="2b00e875cc"><path d="M -11.125 69.40625 L 80.289062 -8.332031 L 160.945312 86.511719 L 69.527344 164.25 Z M -11.125 69.40625 " clip-rule="nonzero"/></clipPath><clipPath id="d475594a48"><path d="M -11.125 69.40625 L 80.289062 -8.332031 L 160.945312 86.511719 L 69.527344 164.25 Z M -11.125 69.40625 " clip-rule="nonzero"/></clipPath><clipPath id="6e4b404b24"><path d="M 104 67 L 112 67 L 112 78 L 104 78 Z M 104 67 " clip-rule="nonzero"/></clipPath><clipPath id="9e0e41ce74"><path d="M -11.125 69.40625 L 80.289062 -8.332031 L 160.945312 86.511719 L 69.527344 164.25 Z M -11.125 69.40625 " clip-rule="nonzero"/></clipPath><clipPath id="8a9f4f7167"><path d="M -11.125 69.40625 L 80.289062 -8.332031 L 160.945312 86.511719 L 69.527344 164.25 Z M -11.125 69.40625 " clip-rule="nonzero"/></clipPath><clipPath id="126d521858"><path d="M 33.722656 72.789062 L 119.222656 72.789062 L 119.222656 102 L 33.722656 102 Z M 33.722656 72.789062 " clip-rule="nonzero"/></clipPath><clipPath id="71965a8135"><path d="M 62.164062 104 L 87.664062 104 L 87.664062 112.539062 L 62.164062 112.539062 Z M 62.164062 104 " clip-rule="nonzero"/></clipPath></defs><g clip-path="url(#db020c09a9)"><g clip-path="url(#e4bc9d66a2)"><g clip-path="url(#7df156b179)"><path fill="#ffffff" d="M 108.34375 27.023438 C 106.976562 26.25 105.808594 25.695312 104.671875 25.269531 C 103.542969 24.84375 102.433594 24.585938 101.398438 24.367188 C 100.597656 24.199219 99.773438 24.054688 98.878906 23.9375 C 98.976562 22.398438 98.90625 20.878906 98.660156 19.375 C 98.175781 16.367188 96.964844 13.511719 95.054688 10.875 C 94.015625 9.441406 92.761719 8.324219 91.667969 7.417969 C 90.339844 6.320312 88.9375 5.589844 87.609375 4.9375 C 86.484375 4.382812 85.292969 3.949219 84.082031 3.65625 C 82.761719 3.339844 81.183594 3.003906 79.472656 2.949219 C 76.214844 2.839844 73.03125 3.429688 70.023438 4.695312 C 68.289062 5.421875 66.757812 6.417969 65.621094 7.207031 C 64.535156 7.957031 63.507812 8.828125 62.574219 9.796875 C 61.195312 11.226562 60.171875 12.472656 59.351562 13.71875 C 58.515625 14.988281 57.765625 16.398438 57.066406 18.027344 C 56.046875 20.402344 55.371094 23.082031 55.058594 26.003906 C 55.03125 26.234375 55.011719 26.464844 54.992188 26.695312 C 54.992188 26.695312 54.984375 26.695312 54.984375 26.695312 C 51.960938 26.78125 48.710938 26.917969 45.4375 27.355469 C 41.589844 27.863281 38.203125 28.988281 35.375 30.691406 C 32.683594 32.3125 30.082031 34.378906 27.429688 37.003906 C 26.597656 37.828125 25.820312 38.671875 25.117188 39.515625 C 24.171875 40.652344 23.566406 41.800781 23.035156 42.875 C 22.6875 43.570312 22.433594 44.238281 22.253906 44.914062 C 22.019531 45.800781 21.769531 46.863281 21.695312 48.023438 C 21.636719 48.972656 21.671875 49.984375 21.804688 51.117188 C 21.878906 51.765625 22.011719 52.421875 22.195312 53.070312 C 22.589844 54.425781 23.121094 56.027344 24.097656 57.589844 C 24.863281 58.820312 25.789062 60.234375 27.171875 61.503906 C 27.390625 61.707031 27.617188 61.917969 27.859375 62.128906 C 27.234375 63.46875 26.675781 64.769531 26.167969 66.054688 C 24.699219 69.800781 23.644531 73.8125 23.03125 77.972656 C 21.984375 85.046875 22.398438 92.636719 24.226562 99.917969 C 25.1875 103.742188 26.449219 107.390625 27.980469 110.773438 C 29.570312 114.289062 31.574219 117.769531 34.113281 121.402344 C 38.726562 128.015625 44.738281 133.972656 51.980469 139.113281 C 55.175781 141.386719 58.628906 143.46875 62.25 145.300781 C 65.957031 147.183594 70.574219 149.523438 75.84375 149.789062 C 82.566406 150.128906 89.292969 147.460938 95.878906 141.863281 C 96.820312 141.0625 97.761719 140.199219 98.699219 139.277344 C 104.230469 133.832031 109.039062 127.320312 112.988281 119.9375 C 116.445312 113.476562 119.496094 106.277344 122.316406 97.933594 C 123.390625 94.746094 124.480469 91.289062 125.738281 87.054688 L 126.101562 85.851562 C 127.128906 82.425781 128.1875 78.886719 128.839844 75.199219 C 129.230469 73.003906 129.347656 70.703125 129.203125 68.167969 C 129.070312 65.902344 128.546875 63.609375 127.550781 60.949219 C 125.949219 56.65625 123.25 52.988281 120.8125 49.960938 C 121.164062 48.984375 121.417969 47.886719 121.574219 46.6875 C 121.640625 46.199219 121.660156 45.703125 121.648438 45.171875 L 121.644531 44.992188 C 121.625 44.3125 121.605469 43.460938 121.410156 42.539062 C 120.734375 39.382812 119.035156 37.019531 117.628906 35.308594 C 116.285156 33.6875 115.09375 32.402344 113.875 31.269531 C 112.265625 29.773438 110.484375 28.226562 108.34375 27.023438 Z M 108.34375 27.023438 " fill-opacity="1" fill-rule="nonzero"/></g></g></g><g clip-path="url(#56667f0281)"><g clip-path="url(#852e01db43)"><g clip-path="url(#c6c7d5b61a)"><path fill="#258f35" d="M 111.324219 40.589844 C 112.179688 41.628906 113.027344 42.742188 113.324219 44.058594 C 113.734375 45.878906 113.015625 47.789062 111.953125 49.324219 C 111.589844 49.847656 111.1875 50.335938 110.757812 50.78125 C 106.28125 55.441406 98.3125 56.132812 92.492188 53.046875 C 90.851562 52.175781 89.179688 51.011719 87.324219 51.175781 C 84.738281 51.398438 83.046875 54.191406 82.921875 56.785156 C 82.792969 59.378906 83.761719 61.886719 84.304688 64.421875 C 84.855469 66.957031 84.894531 69.875 83.222656 71.859375 C 81.707031 73.65625 79.148438 74.222656 76.804688 74.082031 C 74.460938 73.941406 72.195312 73.214844 69.871094 72.890625 C 68.433594 72.691406 66.972656 72.640625 65.582031 72.21875 C 62.390625 71.238281 59.96875 68.125 59.800781 64.789062 C 59.648438 61.636719 61.25 58.199219 59.632812 55.492188 L 59.574219 55.402344 C 56.308594 57.277344 52.53125 58.035156 48.808594 58.566406 C 45.566406 59.027344 42.160156 59.308594 38.992188 58.667969 C 37.757812 58.414062 36.558594 58.027344 35.417969 57.453125 C 31.355469 55.410156 28.542969 50.242188 30.554688 46.15625 C 31.183594 44.878906 32.195312 43.839844 33.210938 42.847656 C 35.8125 40.308594 38.628906 37.859375 42.035156 36.582031 C 44.265625 35.746094 46.664062 35.445312 49.042969 35.238281 C 53.605469 34.84375 58.1875 34.765625 62.757812 35.011719 C 62.976562 35.023438 63.207031 35.03125 63.382812 34.90625 C 63.695312 34.6875 63.648438 34.21875 63.578125 33.84375 C 62.683594 29.277344 63.054688 24.398438 65.09375 20.214844 C 67.132812 16.03125 70.925781 12.632812 75.449219 11.527344 C 79.96875 10.421875 85.128906 11.824219 88.132812 15.375 C 91.703125 19.585938 91.542969 26.484375 87.773438 30.53125 C 92.011719 32.234375 96.886719 31.398438 101.234375 32.789062 C 105.339844 34.09375 108.582031 37.265625 111.324219 40.589844 Z M 111.324219 40.589844 " fill-opacity="1" fill-rule="nonzero"/></g></g></g><g clip-path="url(#390fce128e)"><g clip-path="url(#32accb4b19)"><g clip-path="url(#131b365eae)"><path fill="#e44037" d="M 110.753906 50.78125 C 111.554688 51.710938 112.351562 52.648438 113.144531 53.589844 C 116.683594 57.808594 120.203125 62.4375 120.925781 67.894531 C 121.492188 72.140625 120.289062 76.398438 119.09375 80.5 C 113.378906 100.09375 106.816406 120.585938 91.839844 134.453125 C 87.457031 138.507812 81.90625 142.042969 75.949219 141.546875 C 73.183594 141.320312 70.566406 140.234375 68.066406 139.039062 C 55.789062 133.171875 44.867188 124.074219 38.019531 112.320312 C 31.175781 100.5625 28.683594 86.066406 32.484375 73.003906 C 33.957031 67.945312 36.3125 63.195312 38.992188 58.65625 C 42.164062 59.296875 45.566406 59.019531 48.808594 58.558594 C 52.535156 58.027344 56.3125 57.269531 59.574219 55.390625 L 59.636719 55.480469 C 61.253906 58.191406 59.644531 61.628906 59.800781 64.777344 C 59.964844 68.117188 62.386719 71.230469 65.585938 72.207031 C 66.96875 72.632812 68.433594 72.679688 69.871094 72.878906 C 72.195312 73.207031 74.464844 73.929688 76.808594 74.070312 C 79.15625 74.210938 81.710938 73.648438 83.222656 71.851562 C 84.898438 69.867188 84.859375 66.949219 84.308594 64.414062 C 83.761719 61.875 82.792969 59.367188 82.921875 56.773438 C 83.050781 54.179688 84.738281 51.386719 87.328125 51.164062 C 89.179688 51 90.851562 52.164062 92.496094 53.039062 C 98.3125 56.132812 106.28125 55.433594 110.753906 50.78125 Z M 110.753906 50.78125 " fill-opacity="1" fill-rule="nonzero"/></g></g></g><g clip-path="url(#7c10a43d09)"><g clip-path="url(#f29758342f)"><g clip-path="url(#df5ddeb5e5)"><path fill="#efbe58" d="M 49.652344 87.496094 C 48.980469 87.863281 47.480469 88.792969 46.4375 90.636719 C 46.042969 91.335938 45.144531 92.921875 45.445312 95.027344 C 45.695312 96.804688 46.628906 97.78125 48.226562 99.4375 C 48.441406 99.660156 48.796875 100.019531 49.246094 99.988281 C 49.527344 99.964844 49.773438 99.800781 50 99.640625 C 51.570312 98.542969 53.210938 97.363281 54.019531 95.625 C 54.246094 95.140625 55.140625 92.777344 53.839844 90.421875 C 52.53125 88.046875 50 87.558594 49.652344 87.496094 Z M 49.652344 87.496094 " fill-opacity="1" fill-rule="nonzero"/></g></g></g><g clip-path="url(#a88ed084fd)"><g clip-path="url(#ea53c0480a)"><g clip-path="url(#6727f04fcb)"><path fill="#efbe58" d="M 68.480469 111.730469 C 66.292969 110.359375 63.441406 112.132812 63.773438 114.695312 C 63.773438 114.714844 63.777344 114.730469 63.777344 114.746094 C 64.023438 116.453125 65.03125 117.941406 66.039062 119.34375 C 66.25 119.632812 66.484375 119.941406 66.832031 120.019531 C 67.195312 120.105469 67.558594 119.917969 67.882812 119.734375 C 69.421875 118.867188 71.160156 117.691406 71.199219 115.925781 C 71.21875 115.015625 70.757812 114.171875 70.292969 113.390625 C 69.914062 112.75 69.210938 112.1875 68.480469 111.730469 Z M 68.480469 111.730469 " fill-opacity="1" fill-rule="nonzero"/></g></g></g><g clip-path="url(#cb064a6ad7)"><g clip-path="url(#8321571995)"><g clip-path="url(#f50f482387)"><path fill="#efbe58" d="M 82.167969 89.351562 C 81.460938 88.667969 80.613281 88.257812 79.714844 87.972656 C 78.175781 87.492188 76.496094 88.019531 75.574219 89.347656 C 75.292969 89.75 75.078125 90.195312 75.019531 90.640625 C 74.808594 92.261719 75.433594 93.96875 76.640625 95.070312 C 77.117188 95.507812 77.707031 95.859375 78.355469 95.925781 C 79.339844 96.03125 80.257812 95.476562 81.058594 94.902344 C 82.292969 94.007812 83.550781 92.851562 83.144531 91.058594 C 83 90.410156 82.644531 89.824219 82.167969 89.351562 Z M 82.167969 89.351562 " fill-opacity="1" fill-rule="nonzero"/></g></g></g><g clip-path="url(#01fedefd60)"><g clip-path="url(#2b00e875cc)"><g clip-path="url(#d475594a48)"><path fill="#efbe58" d="M 97.699219 103.308594 C 97.023438 102.691406 96.078125 102.3125 95.179688 102.496094 L 94.738281 102.597656 C 92.269531 104.503906 91.460938 108.257812 92.921875 111.015625 C 93.128906 111.402344 93.441406 111.8125 93.878906 111.832031 C 94.101562 111.839844 94.304688 111.746094 94.503906 111.65625 C 95.894531 110.996094 97.203125 110.164062 98.386719 109.179688 C 98.84375 108.804688 99.292969 108.382812 99.484375 107.828125 C 99.730469 107.097656 99.476562 106.300781 99.175781 105.59375 C 98.820312 104.757812 98.378906 103.925781 97.699219 103.308594 Z M 97.699219 103.308594 " fill-opacity="1" fill-rule="nonzero"/></g></g></g><g clip-path="url(#6e4b404b24)"><g clip-path="url(#9e0e41ce74)"><g clip-path="url(#8a9f4f7167)"><path fill="#efbe58" d="M 105.429688 69.089844 C 105.429688 69.089844 102.902344 72.082031 106.390625 76.722656 C 106.632812 77.046875 106.933594 77.371094 107.328125 77.429688 C 107.773438 77.492188 108.1875 77.210938 108.527344 76.921875 C 109.703125 75.921875 112.621094 73.3125 111.6875 70.359375 C 111.632812 70.191406 110.886719 67.964844 108.910156 67.601562 C 106.988281 67.25 105.523438 68.976562 105.429688 69.089844 Z M 105.429688 69.089844 " fill-opacity="1" fill-rule="nonzero"/></g></g></g><g clip-path="url(#126d521858)"><path fill="#000000" d="M 118.378906 81.203125 C 117.679688 81.691406 116.785156 82.703125 116.660156 84.746094 C 116.691406 85.625 116.660156 86.503906 116.609375 87.359375 C 116.125 94.917969 114.496094 99.6875 100.699219 101.363281 C 100.09375 101.433594 99.496094 101.476562 98.917969 101.507812 C 84.164062 102.039062 78.667969 88.066406 79.871094 81.265625 C 79.882812 81.242188 79.871094 81.222656 79.882812 81.214844 C 79.046875 80.917969 77.988281 80.683594 76.679688 80.683594 C 75.628906 80.683594 74.4375 80.835938 73.097656 81.234375 C 73.097656 81.242188 73.097656 81.265625 73.097656 81.273438 C 74.292969 88.054688 68.804688 102.027344 54.027344 101.484375 C 53.453125 101.464844 52.855469 101.414062 52.246094 101.34375 C 38.449219 99.679688 36.835938 94.910156 36.339844 87.339844 C 36.277344 86.484375 36.257812 85.605469 36.289062 84.726562 C 36.175781 82.683594 35.269531 81.671875 34.570312 81.183594 C 34.074219 80.835938 33.808594 80.242188 33.847656 79.640625 C 33.929688 78.546875 34.023438 77.453125 34.105469 76.363281 C 34.179688 75.515625 34.859375 74.828125 35.710938 74.757812 C 35.722656 74.757812 35.734375 74.757812 35.742188 74.757812 C 40.675781 74.351562 45.484375 73.226562 50.382812 72.929688 C 52.289062 72.808594 54.203125 72.789062 56.117188 72.859375 C 59.136719 72.972656 62.140625 73.339844 65.085938 73.992188 C 65.929688 74.1875 66.746094 74.441406 67.515625 74.757812 C 67.515625 74.757812 71.417969 75.320312 76.78125 75.320312 C 79.378906 75.320312 82.324219 75.1875 85.320312 74.800781 C 86.113281 74.460938 86.957031 74.195312 87.832031 74.003906 C 90.777344 73.339844 93.78125 72.980469 96.796875 72.867188 C 98.714844 72.796875 100.628906 72.816406 102.535156 72.941406 C 107.457031 73.246094 112.261719 74.371094 117.195312 74.777344 C 117.207031 74.777344 117.214844 74.777344 117.226562 74.777344 C 118.082031 74.851562 118.769531 75.523438 118.832031 76.382812 C 118.914062 77.476562 119.007812 78.566406 119.089844 79.660156 C 119.140625 80.261719 118.875 80.855469 118.378906 81.203125 Z M 118.378906 81.203125 " fill-opacity="1" fill-rule="nonzero"/></g><path fill="#ffffff" d="M 49.4375 98.1875 C 37.101562 96.144531 39.863281 82.113281 39.863281 82.113281 C 40.5625 94.601562 49.4375 98.1875 49.4375 98.1875 Z M 85.101562 81.601562 C 85.101562 81.601562 82.332031 95.632812 94.679688 97.675781 C 94.679688 97.675781 85.8125 94.089844 85.101562 81.601562 Z M 85.101562 81.601562 " fill-opacity="1" fill-rule="nonzero"/><g clip-path="url(#71965a8135)"><path fill="#000000" d="M 86.308594 106.601562 C 84.273438 104.261719 81.3125 103.535156 77.515625 104.449219 C 74.40625 105.195312 71.25 106.882812 68.710938 108.238281 C 68.492188 108.355469 68.273438 108.472656 68.054688 108.589844 C 68.054688 108.589844 64.402344 110.664062 62.175781 111.125 C 62.175781 111.125 64.851562 112.117188 67.335938 112.25 C 69.464844 112.371094 72.496094 112.535156 75.546875 112.535156 C 76.410156 112.535156 77.277344 112.523438 78.125 112.492188 C 83.476562 112.296875 86.34375 111.46875 87.15625 109.886719 C 87.652344 108.921875 87.367188 107.816406 86.308594 106.601562 " fill-opacity="1" fill-rule="nonzero"/></g><path fill="#ffffff" d="M 80.976562 111.546875 C 81.132812 110.066406 80.542969 109.359375 79.859375 109.023438 C 79.589844 108.890625 79.289062 108.859375 78.988281 108.84375 C 78.523438 108.820312 78.160156 108.753906 78.160156 108.753906 C 78.160156 108.753906 78.496094 108.769531 78.925781 108.761719 C 79.511719 108.753906 80.101562 108.667969 80.53125 108.28125 C 80.609375 108.210938 80.683594 108.132812 80.753906 108.046875 C 81.28125 107.40625 80.875 105.980469 80.394531 104.816406 C 76.089844 104.871094 71.078125 107.871094 67.726562 109.617188 C 66.5 110.253906 65.261719 110.792969 63.90625 111.097656 C 64.898438 111.332031 65.839844 111.410156 66.855469 111.46875 C 70.179688 111.664062 76.398438 112.027344 80.976562 111.546875 " fill-opacity="1" fill-rule="nonzero"/></svg>